<mxfile host="app.diagrams.net" modified="2023-01-13T23:06:11.388Z" agent="5.0 (Windows NT 10.0; Win64; x64) AppleWebKit/537.36 (KHTML, like Gecko) Chrome/108.0.0.0 Safari/537.36" etag="dRT4E7rpLHj7Tz84jYRz" version="20.8.5" type="github">
  <diagram name="Page-1" id="c7488fd3-1785-93aa-aadb-54a6760d102a">
    <mxGraphModel dx="733" dy="403" grid="1" gridSize="10" guides="1" tooltips="1" connect="1" arrows="1" fold="1" page="1" pageScale="1" pageWidth="1100" pageHeight="850" background="none" math="0" shadow="0">
      <root>
        <mxCell id="0" />
        <mxCell id="1" parent="0" />
        <mxCell id="2b4e8129b02d487f-1" value="Sistema de Informacion Vehiculo Tiempo Real." style="swimlane;html=1;childLayout=stackLayout;horizontal=1;startSize=20;horizontalStack=0;rounded=0;shadow=0;labelBackgroundColor=none;strokeWidth=1;fontFamily=Verdana;fontSize=8;align=center;" parent="1" vertex="1">
          <mxGeometry x="180" y="70" width="1470" height="520" as="geometry" />
        </mxCell>
        <mxCell id="2b4e8129b02d487f-24" style="edgeStyle=orthogonalEdgeStyle;rounded=0;html=1;labelBackgroundColor=none;startArrow=none;startFill=0;startSize=5;endArrow=classicThin;endFill=1;endSize=5;jettySize=auto;orthogonalLoop=1;strokeWidth=1;fontFamily=Verdana;fontSize=8" parent="2b4e8129b02d487f-1" source="2b4e8129b02d487f-6" target="2b4e8129b02d487f-12" edge="1">
          <mxGeometry relative="1" as="geometry" />
        </mxCell>
        <mxCell id="W_u4hgsqB1Eb9iGtBPcu-11" value="" style="endArrow=classic;html=1;rounded=0;exitX=0.5;exitY=1;exitDx=0;exitDy=0;entryX=0.5;entryY=0;entryDx=0;entryDy=0;" edge="1" parent="2b4e8129b02d487f-1" source="2b4e8129b02d487f-12" target="W_u4hgsqB1Eb9iGtBPcu-10">
          <mxGeometry width="50" height="50" relative="1" as="geometry">
            <mxPoint x="350" y="350" as="sourcePoint" />
            <mxPoint x="400" y="300" as="targetPoint" />
          </mxGeometry>
        </mxCell>
        <mxCell id="W_u4hgsqB1Eb9iGtBPcu-13" value="" style="endArrow=classic;html=1;rounded=0;exitX=1;exitY=0.5;exitDx=0;exitDy=0;entryX=0.5;entryY=1;entryDx=0;entryDy=0;" edge="1" parent="2b4e8129b02d487f-1" source="W_u4hgsqB1Eb9iGtBPcu-10" target="W_u4hgsqB1Eb9iGtBPcu-15">
          <mxGeometry width="50" height="50" relative="1" as="geometry">
            <mxPoint x="320" y="310" as="sourcePoint" />
            <mxPoint x="330" y="290" as="targetPoint" />
            <Array as="points">
              <mxPoint x="355" y="425" />
            </Array>
          </mxGeometry>
        </mxCell>
        <mxCell id="W_u4hgsqB1Eb9iGtBPcu-22" value="" style="endArrow=classic;html=1;rounded=0;fontSize=8;exitX=0.5;exitY=1;exitDx=0;exitDy=0;entryX=0.5;entryY=0;entryDx=0;entryDy=0;" edge="1" parent="2b4e8129b02d487f-1" source="W_u4hgsqB1Eb9iGtBPcu-19" target="W_u4hgsqB1Eb9iGtBPcu-25">
          <mxGeometry width="50" height="50" relative="1" as="geometry">
            <mxPoint x="380" y="270" as="sourcePoint" />
            <mxPoint x="430" y="220" as="targetPoint" />
          </mxGeometry>
        </mxCell>
        <mxCell id="W_u4hgsqB1Eb9iGtBPcu-29" style="edgeStyle=orthogonalEdgeStyle;rounded=0;orthogonalLoop=1;jettySize=auto;html=1;fontSize=8;entryX=0.5;entryY=0;entryDx=0;entryDy=0;exitX=1;exitY=0.5;exitDx=0;exitDy=0;" edge="1" parent="2b4e8129b02d487f-1" source="W_u4hgsqB1Eb9iGtBPcu-19" target="W_u4hgsqB1Eb9iGtBPcu-20">
          <mxGeometry relative="1" as="geometry">
            <mxPoint x="690" y="390" as="targetPoint" />
            <mxPoint x="620" y="310" as="sourcePoint" />
            <Array as="points">
              <mxPoint x="680" y="270" />
            </Array>
          </mxGeometry>
        </mxCell>
        <mxCell id="W_u4hgsqB1Eb9iGtBPcu-34" value="" style="endArrow=classic;html=1;rounded=0;fontSize=8;entryX=0.5;entryY=1;entryDx=0;entryDy=0;exitX=1;exitY=0.5;exitDx=0;exitDy=0;" edge="1" parent="2b4e8129b02d487f-1" source="W_u4hgsqB1Eb9iGtBPcu-20" target="2b4e8129b02d487f-17">
          <mxGeometry width="50" height="50" relative="1" as="geometry">
            <mxPoint x="760" y="410" as="sourcePoint" />
            <mxPoint x="740" y="290" as="targetPoint" />
            <Array as="points">
              <mxPoint x="790" y="420" />
            </Array>
          </mxGeometry>
        </mxCell>
        <mxCell id="2b4e8129b02d487f-2" value="Usuario" style="swimlane;html=1;startSize=20;horizontal=0;swimlaneLine=1;" parent="2b4e8129b02d487f-1" vertex="1">
          <mxGeometry y="20" width="1470" height="180" as="geometry" />
        </mxCell>
        <mxCell id="2b4e8129b02d487f-18" style="edgeStyle=orthogonalEdgeStyle;rounded=0;html=1;labelBackgroundColor=none;startArrow=none;startFill=0;startSize=5;endArrow=classicThin;endFill=1;endSize=5;jettySize=auto;orthogonalLoop=1;strokeWidth=1;fontFamily=Verdana;fontSize=8" parent="2b4e8129b02d487f-2" source="2b4e8129b02d487f-5" target="2b4e8129b02d487f-6" edge="1">
          <mxGeometry relative="1" as="geometry" />
        </mxCell>
        <mxCell id="W_u4hgsqB1Eb9iGtBPcu-2" value="" style="edgeStyle=orthogonalEdgeStyle;rounded=0;orthogonalLoop=1;jettySize=auto;html=1;" edge="1" parent="2b4e8129b02d487f-2" source="2b4e8129b02d487f-5" target="2b4e8129b02d487f-6">
          <mxGeometry relative="1" as="geometry" />
        </mxCell>
        <mxCell id="2b4e8129b02d487f-5" value="Peticion de chekeo" style="ellipse;whiteSpace=wrap;html=1;rounded=0;shadow=0;labelBackgroundColor=none;strokeWidth=1;fontFamily=Verdana;fontSize=8;align=center;" parent="2b4e8129b02d487f-2" vertex="1">
          <mxGeometry x="70" y="50" width="60" height="50" as="geometry" />
        </mxCell>
        <mxCell id="2b4e8129b02d487f-6" value="Mete las llaves en el automovil." style="rounded=1;whiteSpace=wrap;html=1;shadow=0;labelBackgroundColor=none;strokeWidth=1;fontFamily=Verdana;fontSize=8;align=center;" parent="2b4e8129b02d487f-2" vertex="1">
          <mxGeometry x="180" y="56.49999999999997" width="70" height="37" as="geometry" />
        </mxCell>
        <mxCell id="2b4e8129b02d487f-17" value="Se muestra&amp;nbsp; un&amp;nbsp; sÃ­mbolo para el estado de cada componente" style="rounded=1;whiteSpace=wrap;html=1;shadow=0;labelBackgroundColor=none;strokeWidth=1;fontFamily=Verdana;fontSize=8;align=center;" parent="2b4e8129b02d487f-2" vertex="1">
          <mxGeometry x="730" y="70" width="120" height="60" as="geometry" />
        </mxCell>
        <mxCell id="W_u4hgsqB1Eb9iGtBPcu-41" value="&lt;div style=&quot;&quot;&gt;&lt;span style=&quot;background-color: initial;&quot;&gt;&lt;font style=&quot;font-size: 8px;&quot;&gt;Desea activar la hubicacion por&amp;nbsp; GPS del vehiculo?&lt;/font&gt;&lt;/span&gt;&lt;/div&gt;" style="rhombus;whiteSpace=wrap;html=1;align=center;" vertex="1" parent="2b4e8129b02d487f-2">
          <mxGeometry x="910" y="48.87" width="110" height="100.75" as="geometry" />
        </mxCell>
        <mxCell id="W_u4hgsqB1Eb9iGtBPcu-42" value="" style="endArrow=classic;html=1;rounded=0;fontSize=8;exitX=1;exitY=0.5;exitDx=0;exitDy=0;entryX=0;entryY=0.5;entryDx=0;entryDy=0;" edge="1" parent="2b4e8129b02d487f-2" source="2b4e8129b02d487f-17" target="W_u4hgsqB1Eb9iGtBPcu-41">
          <mxGeometry width="50" height="50" relative="1" as="geometry">
            <mxPoint x="820" y="250" as="sourcePoint" />
            <mxPoint x="870" y="200" as="targetPoint" />
          </mxGeometry>
        </mxCell>
        <mxCell id="W_u4hgsqB1Eb9iGtBPcu-54" value="Si" style="text;html=1;strokeColor=none;fillColor=none;align=center;verticalAlign=middle;whiteSpace=wrap;rounded=0;fontSize=8;" vertex="1" parent="2b4e8129b02d487f-2">
          <mxGeometry x="1010" y="60" width="60" height="30" as="geometry" />
        </mxCell>
        <mxCell id="W_u4hgsqB1Eb9iGtBPcu-61" value="No" style="text;html=1;strokeColor=none;fillColor=none;align=center;verticalAlign=middle;whiteSpace=wrap;rounded=0;fontSize=8;" vertex="1" parent="2b4e8129b02d487f-2">
          <mxGeometry x="950" y="149.62" width="60" height="30.38" as="geometry" />
        </mxCell>
        <mxCell id="2b4e8129b02d487f-3" value="Vehiculo" style="swimlane;html=1;startSize=20;horizontal=0;" parent="2b4e8129b02d487f-1" vertex="1">
          <mxGeometry y="200" width="1470" height="150" as="geometry" />
        </mxCell>
        <mxCell id="2b4e8129b02d487f-12" value="Se enciende el vehiculo" style="rounded=1;whiteSpace=wrap;html=1;shadow=0;labelBackgroundColor=none;strokeWidth=1;fontFamily=Verdana;fontSize=8;align=center;" parent="2b4e8129b02d487f-3" vertex="1">
          <mxGeometry x="180" y="49.99999999999996" width="70" height="37" as="geometry" />
        </mxCell>
        <mxCell id="W_u4hgsqB1Eb9iGtBPcu-15" value="Analisa componente fisicos del vehiculo (Tanque de Gasolina, frenos. motor, neumaticos, temperatura)" style="rounded=1;whiteSpace=wrap;html=1;shadow=0;labelBackgroundColor=none;strokeWidth=1;fontFamily=Verdana;fontSize=8;align=center;" vertex="1" parent="2b4e8129b02d487f-3">
          <mxGeometry x="290" y="33.5" width="130" height="70" as="geometry" />
        </mxCell>
        <mxCell id="W_u4hgsqB1Eb9iGtBPcu-19" value="&lt;div style=&quot;&quot;&gt;&lt;span style=&quot;background-color: initial;&quot;&gt;&lt;font style=&quot;font-size: 8px;&quot;&gt;Todos los componentes se encuentran en buen estado?&lt;/font&gt;&lt;/span&gt;&lt;/div&gt;" style="rhombus;whiteSpace=wrap;html=1;align=center;" vertex="1" parent="2b4e8129b02d487f-3">
          <mxGeometry x="480" y="19.25" width="110" height="100.75" as="geometry" />
        </mxCell>
        <mxCell id="W_u4hgsqB1Eb9iGtBPcu-24" value="Si" style="text;html=1;strokeColor=none;fillColor=none;align=center;verticalAlign=middle;whiteSpace=wrap;rounded=0;fontSize=8;" vertex="1" parent="2b4e8129b02d487f-3">
          <mxGeometry x="550" y="30" width="60" height="30" as="geometry" />
        </mxCell>
        <mxCell id="W_u4hgsqB1Eb9iGtBPcu-64" value="Se activa el GPS de&amp;nbsp; y&amp;nbsp; envia la hubicacion del vehiculo." style="rounded=1;whiteSpace=wrap;html=1;fontSize=8;" vertex="1" parent="2b4e8129b02d487f-3">
          <mxGeometry x="915" y="50" width="100" height="50" as="geometry" />
        </mxCell>
        <mxCell id="2b4e8129b02d487f-7" value="Entra en modo chekeo" style="rounded=1;whiteSpace=wrap;html=1;shadow=0;labelBackgroundColor=none;strokeWidth=1;fontFamily=Verdana;fontSize=8;align=center;" parent="2b4e8129b02d487f-3" vertex="1">
          <mxGeometry x="65" y="50" width="70" height="37" as="geometry" />
        </mxCell>
        <mxCell id="W_u4hgsqB1Eb9iGtBPcu-9" value="" style="endArrow=classic;html=1;rounded=0;exitX=1;exitY=0.5;exitDx=0;exitDy=0;entryX=0;entryY=0.5;entryDx=0;entryDy=0;" edge="1" parent="2b4e8129b02d487f-3" source="2b4e8129b02d487f-7" target="2b4e8129b02d487f-12">
          <mxGeometry width="50" height="50" relative="1" as="geometry">
            <mxPoint x="160" y="68.5" as="sourcePoint" />
            <mxPoint x="330" y="-60" as="targetPoint" />
          </mxGeometry>
        </mxCell>
        <mxCell id="2b4e8129b02d487f-4" value="Sistema de InformaciÃ³n" style="swimlane;html=1;startSize=20;horizontal=0;" parent="2b4e8129b02d487f-1" vertex="1">
          <mxGeometry y="350" width="1470" height="170" as="geometry" />
        </mxCell>
        <mxCell id="W_u4hgsqB1Eb9iGtBPcu-10" value="Empeiza a registra la actividad del vehiculo." style="rounded=1;whiteSpace=wrap;html=1;shadow=0;labelBackgroundColor=none;strokeWidth=1;fontFamily=Verdana;fontSize=8;align=center;" vertex="1" parent="2b4e8129b02d487f-4">
          <mxGeometry x="170" y="50" width="90" height="50" as="geometry" />
        </mxCell>
        <mxCell id="W_u4hgsqB1Eb9iGtBPcu-20" value="Guarda un registo del ultimo chequeo realizado" style="rounded=1;whiteSpace=wrap;html=1;shadow=0;labelBackgroundColor=none;strokeWidth=1;fontFamily=Verdana;fontSize=8;align=center;" vertex="1" parent="2b4e8129b02d487f-4">
          <mxGeometry x="630" y="48.25" width="100" height="43.5" as="geometry" />
        </mxCell>
        <mxCell id="W_u4hgsqB1Eb9iGtBPcu-25" value="Se registra la fallla del componente." style="rounded=1;whiteSpace=wrap;html=1;fontSize=8;" vertex="1" parent="2b4e8129b02d487f-4">
          <mxGeometry x="482.5" y="50" width="105" height="40" as="geometry" />
        </mxCell>
        <mxCell id="W_u4hgsqB1Eb9iGtBPcu-33" value="" style="endArrow=classic;html=1;rounded=0;fontSize=8;exitX=1;exitY=0.5;exitDx=0;exitDy=0;entryX=0;entryY=0.5;entryDx=0;entryDy=0;" edge="1" parent="2b4e8129b02d487f-4" source="W_u4hgsqB1Eb9iGtBPcu-25" target="W_u4hgsqB1Eb9iGtBPcu-20">
          <mxGeometry width="50" height="50" relative="1" as="geometry">
            <mxPoint x="690" y="-10" as="sourcePoint" />
            <mxPoint x="740" y="-60" as="targetPoint" />
          </mxGeometry>
        </mxCell>
        <mxCell id="W_u4hgsqB1Eb9iGtBPcu-27" value="No" style="text;html=1;strokeColor=none;fillColor=none;align=center;verticalAlign=middle;whiteSpace=wrap;rounded=0;fontSize=8;" vertex="1" parent="2b4e8129b02d487f-4">
          <mxGeometry x="527.5" width="60" height="30" as="geometry" />
        </mxCell>
        <mxCell id="W_u4hgsqB1Eb9iGtBPcu-65" value="Se recopila toda la informacion del chequeo" style="rounded=1;whiteSpace=wrap;html=1;fontSize=8;" vertex="1" parent="2b4e8129b02d487f-4">
          <mxGeometry x="1050" y="41.75" width="100" height="50" as="geometry" />
        </mxCell>
        <mxCell id="W_u4hgsqB1Eb9iGtBPcu-71" value="Se apaga el vehiculo." style="rounded=1;whiteSpace=wrap;html=1;fontSize=8;" vertex="1" parent="2b4e8129b02d487f-4">
          <mxGeometry x="1200" y="46.75" width="90" height="40" as="geometry" />
        </mxCell>
        <mxCell id="W_u4hgsqB1Eb9iGtBPcu-72" value="Se envia la informacion al usuario" style="ellipse;whiteSpace=wrap;html=1;fontSize=8;" vertex="1" parent="2b4e8129b02d487f-4">
          <mxGeometry x="1360" y="26.75" width="90" height="80" as="geometry" />
        </mxCell>
        <mxCell id="W_u4hgsqB1Eb9iGtBPcu-73" value="" style="endArrow=classic;html=1;rounded=0;fontSize=8;exitX=1;exitY=0.5;exitDx=0;exitDy=0;entryX=0;entryY=0.5;entryDx=0;entryDy=0;" edge="1" parent="2b4e8129b02d487f-4" source="W_u4hgsqB1Eb9iGtBPcu-71" target="W_u4hgsqB1Eb9iGtBPcu-72">
          <mxGeometry width="50" height="50" relative="1" as="geometry">
            <mxPoint x="1350" y="-20" as="sourcePoint" />
            <mxPoint x="1400" y="-70" as="targetPoint" />
          </mxGeometry>
        </mxCell>
        <mxCell id="W_u4hgsqB1Eb9iGtBPcu-66" value="" style="endArrow=classic;html=1;rounded=0;fontSize=8;entryX=0;entryY=0.5;entryDx=0;entryDy=0;exitX=0.5;exitY=1;exitDx=0;exitDy=0;" edge="1" parent="2b4e8129b02d487f-1" source="W_u4hgsqB1Eb9iGtBPcu-64" target="W_u4hgsqB1Eb9iGtBPcu-65">
          <mxGeometry width="50" height="50" relative="1" as="geometry">
            <mxPoint x="880" y="370" as="sourcePoint" />
            <mxPoint x="930" y="320" as="targetPoint" />
            <Array as="points">
              <mxPoint x="965" y="417" />
            </Array>
          </mxGeometry>
        </mxCell>
        <mxCell id="W_u4hgsqB1Eb9iGtBPcu-62" value="" style="endArrow=classic;html=1;rounded=0;fontSize=8;exitX=0.5;exitY=1;exitDx=0;exitDy=0;entryX=0.5;entryY=0;entryDx=0;entryDy=0;" edge="1" parent="2b4e8129b02d487f-1" source="W_u4hgsqB1Eb9iGtBPcu-41" target="W_u4hgsqB1Eb9iGtBPcu-64">
          <mxGeometry width="50" height="50" relative="1" as="geometry">
            <mxPoint x="980" y="170" as="sourcePoint" />
            <mxPoint x="985" y="250" as="targetPoint" />
          </mxGeometry>
        </mxCell>
        <mxCell id="W_u4hgsqB1Eb9iGtBPcu-52" style="edgeStyle=orthogonalEdgeStyle;rounded=0;orthogonalLoop=1;jettySize=auto;html=1;fontSize=8;entryX=0.5;entryY=0;entryDx=0;entryDy=0;exitX=1;exitY=0.5;exitDx=0;exitDy=0;" edge="1" parent="2b4e8129b02d487f-1" source="W_u4hgsqB1Eb9iGtBPcu-41" target="W_u4hgsqB1Eb9iGtBPcu-65">
          <mxGeometry relative="1" as="geometry">
            <mxPoint x="1130" y="248.66999999999996" as="targetPoint" />
            <mxPoint x="1040" y="120.04499999999999" as="sourcePoint" />
            <Array as="points">
              <mxPoint x="1100" y="119" />
            </Array>
          </mxGeometry>
        </mxCell>
        <mxCell id="W_u4hgsqB1Eb9iGtBPcu-37" style="edgeStyle=orthogonalEdgeStyle;rounded=0;orthogonalLoop=1;jettySize=auto;html=1;exitX=0.5;exitY=1;exitDx=0;exitDy=0;entryX=0.5;entryY=0;entryDx=0;entryDy=0;fontSize=8;" edge="1" parent="2b4e8129b02d487f-1" source="2b4e8129b02d487f-5" target="2b4e8129b02d487f-7">
          <mxGeometry relative="1" as="geometry" />
        </mxCell>
        <mxCell id="W_u4hgsqB1Eb9iGtBPcu-18" value="" style="endArrow=classic;html=1;rounded=0;exitX=1;exitY=0.5;exitDx=0;exitDy=0;" edge="1" parent="1" source="W_u4hgsqB1Eb9iGtBPcu-15">
          <mxGeometry width="50" height="50" relative="1" as="geometry">
            <mxPoint x="500" y="350" as="sourcePoint" />
            <mxPoint x="660" y="339" as="targetPoint" />
          </mxGeometry>
        </mxCell>
        <mxCell id="W_u4hgsqB1Eb9iGtBPcu-67" value="" style="endArrow=classic;html=1;rounded=0;fontSize=8;exitX=1;exitY=0.5;exitDx=0;exitDy=0;" edge="1" parent="1" source="W_u4hgsqB1Eb9iGtBPcu-65">
          <mxGeometry width="50" height="50" relative="1" as="geometry">
            <mxPoint x="1060" y="350" as="sourcePoint" />
            <mxPoint x="1380" y="487" as="targetPoint" />
          </mxGeometry>
        </mxCell>
      </root>
    </mxGraphModel>
  </diagram>
</mxfile>
